<svg xmlns="http://www.w3.org/2000/svg" viewBox="0 0 990.14 660.17"><defs><style>.cls-1{fill:#f2c500;}.cls-2{fill:#f59d00;}</style></defs><g id="Layer_2" data-name="Layer 2"><g id="Layer_1-2" data-name="Layer 1"><path class="cls-1" d="M879.31,660.17H110.83C49.72,660.17,0,620,0,570.62V89.55C0,40.17,49.72,0,110.83,0H879.3c61.12,0,110.84,40.17,110.84,89.55V570.62C990.14,620,940.42,660.17,879.31,660.17Z"/><path class="cls-2" d="M146.74,0V102.34c0,21.2,21.27,38.38,47.5,38.38s47.5-17.18,47.5-38.38V0Z"/><path class="cls-2" d="M194.24,519.45c-26.23,0-47.5,17.18-47.5,38.38V660.17h95V557.83C241.74,536.63,220.47,519.45,194.24,519.45Z"/><path class="cls-2" d="M879.31,0H495.07V660.17H879.31c61.11,0,110.83-40.17,110.83-89.55V89.55C990.14,40.17,940.42,0,879.31,0Z"/><path class="cls-1" d="M864.86,390.56c.13-4.66-1.87-8.4-5.24-11.59a184.61,184.61,0,0,0-59.33-37.76,193.81,193.81,0,0,0-190.61,27.25c-5.2,4-10.57,8.07-14.52,13.36-3.65,4.9-3.86,10.27-1.09,15.65,2.65,5.13,7,7.75,13,8.29,6.94.62,11.58-3.18,16.21-7.21q52.83-46.05,123.86-38.72c26.65,2.8,50.57,12.36,72.34,27.25,7.41,5.06,13.39,11.73,21,16.47,5.29,3.29,10.89,3.21,16.38.29S864.68,396.35,864.86,390.56Zm-128.39-.71c-26.55-.06-44.42,4.36-60.7,13.47-10,5.6-19.32,12.13-26.34,21.14a14.48,14.48,0,0,0,0,18c4.11,5.25,11.29,7.31,18,5.42,4.63-1.3,7.4-4.82,10.75-7.69,22.2-19,47.47-24,75.67-14.87,11,3.57,20.17,9.93,28.27,17.84,5.71,5.58,12.49,7.06,18.67,4.48,11.45-4.78,13.64-17.25,4.45-26.3C784.36,400.73,758.85,390.22,736.47,389.85Zm-40.15,93c-.14,17.32,14.09,31.11,32.17,31.17,17.9.07,32.22-13.42,32.44-30.54.23-17.35-13.84-31.14-32-31.34S696.47,465.42,696.32,482.81Z"/></g></g></svg>